<svg width="83" height="82" viewBox="0 0 83 82" fill="none" xmlns="http://www.w3.org/2000/svg">
<path d="M41.5 24.9L63.6333 35.9667V80.2333H19.3667V35.9667L41.5 24.9ZM41.5 24.9V0M0 80.2333H83M8.3 80.2333V47.0333H19.3667M74.7 80.2333V47.0333H63.6333M35.9667 80.2333V63.6333H47.0333V80.2333M41.5 2.76667H58.1V13.8333H41.5M41.5 52.5667C40.0325 52.5667 38.625 51.9837 37.5873 50.946C36.5496 49.9083 35.9667 48.5009 35.9667 47.0333C35.9667 45.5658 36.5496 44.1584 37.5873 43.1207C38.625 42.083 40.0325 41.5 41.5 41.5C42.9675 41.5 44.375 42.083 45.4127 43.1207C46.4504 44.1584 47.0333 45.5658 47.0333 47.0333C47.0333 48.5009 46.4504 49.9083 45.4127 50.946C44.375 51.9837 42.9675 52.5667 41.5 52.5667Z" stroke="black" stroke-width="3"/>
</svg>
