<svg width="33" height="32" viewBox="0 0 33 32" fill="none" xmlns="http://www.w3.org/2000/svg">
<g clip-path="url(#clip0_142_1845)">
<g clip-path="url(#clip1_142_1845)">
<path d="M21.8768 11.5765C21.7408 11.2265 21.5783 10.9765 21.3158 10.714C21.0533 10.4515 20.8033 10.289 20.4533 10.153C20.1888 10.0505 19.7918 9.928 19.0608 9.8945C18.2698 9.8585 18.0328 9.851 16.0303 9.851C14.0278 9.851 13.7903 9.8585 12.9998 9.8945C12.2688 9.928 11.8713 10.05 11.6073 10.153C11.2573 10.289 11.0073 10.4515 10.7448 10.714C10.4823 10.9765 10.3198 11.2265 10.1838 11.5765C10.0813 11.841 9.95877 12.238 9.92577 12.969C9.88977 13.76 9.88227 13.997 9.88227 15.9995C9.88227 18.002 9.88977 18.2395 9.92577 19.03C9.95927 19.761 10.0813 20.1585 10.1838 20.4225C10.3198 20.7725 10.4823 21.0225 10.7448 21.285C11.0073 21.5475 11.2573 21.71 11.6073 21.846C11.8718 21.9485 12.2688 22.071 12.9998 22.104C13.7903 22.14 14.0278 22.1475 16.0303 22.1475C18.0328 22.1475 18.2703 22.14 19.0608 22.104C19.7918 22.0705 20.1893 21.9485 20.4533 21.846C20.8033 21.71 21.0533 21.5475 21.3158 21.285C21.5783 21.0225 21.7408 20.7725 21.8768 20.4225C21.9793 20.158 22.1018 19.761 22.1348 19.03C22.1708 18.239 22.1783 18.002 22.1783 15.9995C22.1783 13.997 22.1708 13.7595 22.1348 12.969C22.1018 12.238 21.9798 11.841 21.8768 11.5765ZM16.0303 19.8515C13.9033 19.8515 12.1788 18.127 12.1788 16C12.1788 13.873 13.9033 12.1485 16.0303 12.1485C18.1573 12.1485 19.8818 13.873 19.8818 16C19.8818 18.127 18.1573 19.8515 16.0303 19.8515ZM20.0338 12.8965C19.5368 12.8965 19.1338 12.4935 19.1338 11.9965C19.1338 11.4995 19.5368 11.0965 20.0338 11.0965C20.5308 11.0965 20.9338 11.4995 20.9338 11.9965C20.9338 12.4935 20.5308 12.8965 20.0338 12.8965ZM0.0302734 0V32H32.0303V0H0.0302734ZM23.4853 19.092C23.4488 19.8905 23.3223 20.4355 23.1368 20.9125C22.9453 21.4055 22.6888 21.824 22.2718 22.241C21.8548 22.658 21.4368 22.9145 20.9433 23.106C20.4663 23.2915 19.9213 23.418 19.1228 23.4545C18.3228 23.4915 18.0673 23.5 16.0303 23.5C13.9933 23.5 13.7378 23.4915 12.9383 23.455C12.1398 23.4185 11.5948 23.292 11.1178 23.1065C10.6248 22.915 10.2063 22.6585 9.78927 22.2415C9.37227 21.8245 9.11577 21.4065 8.92427 20.913C8.73877 20.436 8.61227 19.891 8.57577 19.0925C8.53877 18.2925 8.53027 18.037 8.53027 16C8.53027 13.963 8.53877 13.7075 8.57527 12.9075C8.61177 12.109 8.73827 11.564 8.92377 11.087C9.11527 10.594 9.37177 10.1755 9.78877 9.7585C10.2058 9.3415 10.6238 9.085 11.1173 8.8935C11.5943 8.708 12.1398 8.5815 12.9378 8.545C13.7378 8.5085 13.9933 8.5 16.0303 8.5C18.0673 8.5 18.3228 8.5085 19.1223 8.545C19.9208 8.5815 20.4658 8.708 20.9428 8.8935C21.4358 9.085 21.8543 9.3415 22.2713 9.7585C22.6883 10.1755 22.9448 10.5935 23.1363 11.087C23.3218 11.564 23.4483 12.109 23.4848 12.9075C23.5218 13.7075 23.5303 13.963 23.5303 16C23.5303 18.037 23.5218 18.2925 23.4853 19.092ZM16.0303 13.5C14.6498 13.5 13.5303 14.6195 13.5303 16C13.5303 17.3805 14.6498 18.5 16.0303 18.5C17.4108 18.5 18.5303 17.3805 18.5303 16C18.5303 14.6195 17.4108 13.5 16.0303 13.5Z" fill="#E4405F"/>
</g>
</g>
<defs>
<clipPath id="clip0_142_1845">
<rect width="32" height="32" fill="white" transform="translate(0.0302734)"/>
</clipPath>
<clipPath id="clip1_142_1845">
<rect width="32" height="32" fill="white" transform="translate(0.0302734)"/>
</clipPath>
</defs>
</svg>
