<svg width="78" height="78" viewBox="0 0 78 78" fill="none" xmlns="http://www.w3.org/2000/svg">
<path d="M14.625 34.125C11.9438 34.125 9.75 36.3188 9.75 39C9.75 41.6813 11.9438 43.875 14.625 43.875C17.3063 43.875 19.5 41.6813 19.5 39C19.5 36.3188 17.3063 34.125 14.625 34.125ZM63.375 34.125C60.6937 34.125 58.5 36.3188 58.5 39C58.5 41.6813 60.6937 43.875 63.375 43.875C66.0563 43.875 68.25 41.6813 68.25 39C68.25 36.3188 66.0563 34.125 63.375 34.125ZM39 34.125C36.3188 34.125 34.125 36.3188 34.125 39C34.125 41.6813 36.3188 43.875 39 43.875C41.6812 43.875 43.875 41.6813 43.875 39C43.875 36.3188 41.6812 34.125 39 34.125Z" fill="#474747"/>
</svg>
