<svg width="80" height="80" viewBox="0 0 80 80" fill="none" xmlns="http://www.w3.org/2000/svg">
<path d="M65 35H60V40H65C66.9885 40.002 68.895 40.7928 70.3011 42.1989C71.7072 43.605 72.498 45.5115 72.5 47.5V57.5H77.5V47.5C77.496 44.186 76.1778 41.0089 73.8344 38.6656C71.4911 36.3222 68.314 35.004 65 35ZM60 10C61.4834 10 62.9334 10.4399 64.1668 11.264C65.4001 12.0881 66.3614 13.2594 66.9291 14.6299C67.4968 16.0003 67.6453 17.5083 67.3559 18.9632C67.0665 20.418 66.3522 21.7544 65.3033 22.8033C64.2544 23.8522 62.918 24.5665 61.4632 24.8559C60.0083 25.1453 58.5003 24.9968 57.1299 24.4291C55.7594 23.8614 54.5881 22.9001 53.764 21.6668C52.9399 20.4334 52.5 18.9834 52.5 17.5C52.5 15.5109 53.2902 13.6032 54.6967 12.1967C56.1032 10.7902 58.0109 10 60 10ZM60 5C57.5277 5 55.111 5.73311 53.0554 7.10663C50.9998 8.48015 49.3976 10.4324 48.4515 12.7165C47.5054 15.0005 47.2579 17.5139 47.7402 19.9386C48.2225 22.3634 49.413 24.5907 51.1612 26.3388C52.9093 28.087 55.1366 29.2775 57.5614 29.7598C59.9861 30.2421 62.4995 29.9946 64.7835 29.0485C67.0676 28.1024 69.0199 26.5002 70.3934 24.4446C71.7669 22.389 72.5 19.9723 72.5 17.5C72.5 14.1848 71.183 11.0054 68.8388 8.66117C66.4946 6.31696 63.3152 5 60 5ZM57.5 75H52.5V70C52.498 68.0115 51.7072 66.105 50.3011 64.6989C48.895 63.2928 46.9885 62.502 45 62.5H35C33.0115 62.502 31.105 63.2928 29.6989 64.6989C28.2928 66.105 27.502 68.0115 27.5 70V75H22.5V70C22.504 66.686 23.8222 63.5089 26.1656 61.1655C28.5089 58.8222 31.686 57.504 35 57.5H45C48.314 57.504 51.4911 58.8222 53.8345 61.1655C56.1778 63.5089 57.496 66.686 57.5 70V75ZM40 32.5C41.4834 32.5 42.9334 32.9399 44.1668 33.764C45.4001 34.5881 46.3614 35.7594 46.9291 37.1299C47.4968 38.5003 47.6453 40.0083 47.3559 41.4632C47.0665 42.918 46.3522 44.2544 45.3033 45.3033C44.2544 46.3522 42.918 47.0665 41.4632 47.3559C40.0083 47.6453 38.5003 47.4968 37.1299 46.9291C35.7594 46.3614 34.5881 45.4001 33.764 44.1668C32.9399 42.9334 32.5 41.4834 32.5 40C32.5 38.0109 33.2902 36.1032 34.6967 34.6967C36.1032 33.2902 38.0109 32.5 40 32.5ZM40 27.5C37.5277 27.5 35.111 28.2331 33.0554 29.6066C30.9998 30.9801 29.3976 32.9324 28.4515 35.2165C27.5054 37.5005 27.2579 40.0139 27.7402 42.4386C28.2225 44.8634 29.413 47.0907 31.1612 48.8388C32.9093 50.587 35.1366 51.7775 37.5614 52.2598C39.9861 52.7421 42.4995 52.4946 44.7835 51.5485C47.0676 50.6024 49.0199 49.0002 50.3934 46.9446C51.7669 44.889 52.5 42.4723 52.5 40C52.5 36.6848 51.183 33.5054 48.8388 31.1612C46.4946 28.817 43.3152 27.5 40 27.5ZM20 35H15C11.686 35.004 8.50889 36.3222 6.16555 38.6656C3.8222 41.0089 2.50397 44.186 2.5 47.5V57.5H7.5V47.5C7.50199 45.5115 8.2928 43.605 9.69889 42.1989C11.105 40.7928 13.0115 40.002 15 40H20V35ZM20 10C21.4834 10 22.9334 10.4399 24.1668 11.264C25.4001 12.0881 26.3614 13.2594 26.9291 14.6299C27.4968 16.0003 27.6453 17.5083 27.3559 18.9632C27.0665 20.418 26.3522 21.7544 25.3033 22.8033C24.2544 23.8522 22.918 24.5665 21.4632 24.8559C20.0083 25.1453 18.5003 24.9968 17.1299 24.4291C15.7594 23.8614 14.5881 22.9001 13.764 21.6668C12.9399 20.4334 12.5 18.9834 12.5 17.5C12.5 15.5109 13.2902 13.6032 14.6967 12.1967C16.1032 10.7902 18.0109 10 20 10ZM20 5C17.5277 5 15.111 5.73311 13.0554 7.10663C10.9998 8.48015 9.3976 10.4324 8.45151 12.7165C7.50541 15.0005 7.25787 17.5139 7.74018 19.9386C8.2225 22.3634 9.41301 24.5907 11.1612 26.3388C12.9093 28.087 15.1366 29.2775 17.5614 29.7598C19.9861 30.2421 22.4995 29.9946 24.7835 29.0485C27.0676 28.1024 29.0199 26.5002 30.3934 24.4446C31.7669 22.389 32.5 19.9723 32.5 17.5C32.5 14.1848 31.183 11.0054 28.8388 8.66117C26.4946 6.31696 23.3152 5 20 5Z" fill="#474747"/>
</svg>
