<svg width="33" height="32" viewBox="0 0 33 32" fill="none" xmlns="http://www.w3.org/2000/svg">
<g clip-path="url(#clip0_142_1863)">
<g clip-path="url(#clip1_142_1863)">
<path d="M0.0302734 0V32H32.0303V0H0.0302734ZM16.0303 24C15.2303 24 14.4803 23.9 13.7803 23.65C14.0803 23.15 14.4303 22.55 14.5803 21.95C14.6803 21.6 15.1303 19.75 15.1303 19.75C15.4303 20.3 16.2303 20.75 17.0803 20.75C19.6303 20.75 21.3803 18.4 21.3803 15.25C21.3803 12.9 19.3803 10.65 16.3303 10.65C12.5303 10.65 10.6303 13.4 10.6303 15.65C10.6303 17.05 11.1303 18.25 12.2803 18.7C12.4803 18.75 12.6303 18.7 12.6803 18.5C12.7303 18.35 12.7803 18 12.8303 17.85C12.8803 17.65 12.8803 17.6 12.7303 17.4C12.4303 17 12.1803 16.55 12.1803 15.85C12.1803 13.85 13.6803 12 16.1303 12C18.2803 12 19.4803 13.3 19.4803 15.05C19.4803 17.35 18.4803 19.3 16.9303 19.3C16.0803 19.3 15.4803 18.6 15.6803 17.75C15.9303 16.75 16.3803 15.65 16.3803 14.9C16.3803 14.25 16.0303 13.7 15.2803 13.7C14.4303 13.7 13.7303 14.6 13.7303 15.75C13.7303 16.5 13.9803 17 13.9803 17C13.9803 17 13.0803 20.7 12.9303 21.35C12.7803 21.95 12.7803 22.65 12.7803 23.2C9.98027 22.1 8.03027 19.3 8.03027 16C8.03027 11.6 11.6303 8 16.0303 8C20.4303 8 24.0303 11.6 24.0303 16C24.0303 20.4 20.4303 24 16.0303 24Z" fill="#CC2127"/>
</g>
</g>
<defs>
<clipPath id="clip0_142_1863">
<rect width="32" height="32" fill="white" transform="translate(0.0302734)"/>
</clipPath>
<clipPath id="clip1_142_1863">
<rect width="32" height="32" fill="white" transform="translate(0.0302734)"/>
</clipPath>
</defs>
</svg>
