<svg width="33" height="32" viewBox="0 0 33 32" fill="none" xmlns="http://www.w3.org/2000/svg">
<g clip-path="url(#clip0_142_1856)">
<g clip-path="url(#clip1_142_1856)">
<g clip-path="url(#clip2_142_1856)">
<path d="M0.0302734 0V32H32.0303V0H0.0302734ZM22.3803 12.75C22.3803 12.9 22.3803 13.05 22.3803 13.15C22.3803 17.5 19.0803 22.5 13.0803 22.5C11.2303 22.5 9.48027 21.95 8.03027 21.05C8.28027 21.1 8.53027 21.1 8.83027 21.1C10.3803 21.1 11.7803 20.6 12.9303 19.7C11.4803 19.65 10.2803 18.7 9.88027 17.4C10.0803 17.45 10.2803 17.45 10.4803 17.45C10.7803 17.45 11.0803 17.4 11.3303 17.35C9.83027 17.05 8.68027 15.7 8.68027 14.15V14.1C9.13027 14.35 9.63027 14.5 10.1803 14.5C9.28027 13.9 8.73027 12.9 8.73027 11.75C8.73027 11.15 8.88027 10.6 9.18027 10.1C10.7803 12.1 13.2303 13.4 15.9303 13.55C15.8803 13.3 15.8303 13.05 15.8303 12.8C15.8303 11 17.2803 9.5 19.1303 9.5C20.0803 9.5 20.9303 9.9 21.5303 10.55C22.2803 10.4 22.9803 10.15 23.6303 9.75C23.3803 10.5 22.8803 11.15 22.1803 11.55C22.8303 11.45 23.4803 11.3 24.0803 11.05C23.5803 11.7 23.0303 12.25 22.3803 12.75Z" fill="#55ACEE"/>
</g>
</g>
</g>
<defs>
<clipPath id="clip0_142_1856">
<rect x="0.0302734" width="32" height="32" rx="16" fill="white"/>
</clipPath>
<clipPath id="clip1_142_1856">
<rect width="32" height="32" fill="white" transform="translate(0.0302734)"/>
</clipPath>
<clipPath id="clip2_142_1856">
<rect width="32" height="32" fill="white" transform="translate(0.0302734)"/>
</clipPath>
</defs>
</svg>
