<svg width="61" height="61" viewBox="0 0 61 61" fill="none" xmlns="http://www.w3.org/2000/svg">
<path fill-rule="evenodd" clip-rule="evenodd" d="M30.4997 34.3126C33.196 34.3126 35.782 33.2415 37.6886 31.3348C39.5952 29.4282 40.6663 26.8423 40.6663 24.1459C40.6663 21.4495 39.5952 18.8636 37.6886 16.957C35.782 15.0504 33.196 13.9792 30.4997 13.9792C27.8033 13.9792 25.2174 15.0504 23.3108 16.957C21.4041 18.8636 20.333 21.4495 20.333 24.1459C20.333 26.8423 21.4041 29.4282 23.3108 31.3348C25.2174 33.2415 27.8033 34.3126 30.4997 34.3126ZM30.4997 31.7709C31.501 31.7709 32.4925 31.5737 33.4176 31.1905C34.3427 30.8073 35.1833 30.2457 35.8914 29.5376C36.5994 28.8296 37.1611 27.989 37.5443 27.0639C37.9275 26.1388 38.1247 25.1472 38.1247 24.1459C38.1247 23.1446 37.9275 22.1531 37.5443 21.228C37.1611 20.3028 36.5994 19.4623 35.8914 18.7542C35.1833 18.0462 34.3427 17.4845 33.4176 17.1013C32.4925 16.7181 31.501 16.5209 30.4997 16.5209C28.4774 16.5209 26.5379 17.3243 25.108 18.7542C23.678 20.1842 22.8747 22.1236 22.8747 24.1459C22.8747 26.1682 23.678 28.1076 25.108 29.5376C26.5379 30.9676 28.4774 31.7709 30.4997 31.7709Z" fill="#373837"/>
<path fill-rule="evenodd" clip-rule="evenodd" d="M55.9163 30.5C55.9163 44.5377 44.5373 55.9167 30.4997 55.9167C16.462 55.9167 5.08301 44.5377 5.08301 30.5C5.08301 16.4624 16.462 5.08337 30.4997 5.08337C44.5373 5.08337 55.9163 16.4624 55.9163 30.5ZM42.7378 49.8294C39.079 52.152 34.8334 53.382 30.4997 53.375C26.0621 53.3822 21.7192 52.0924 18.0048 49.6642C17.6998 49.283 17.391 48.889 17.0771 48.4823C16.7143 48.0057 16.5187 47.4229 16.5205 46.8239C16.5205 45.4552 17.5041 44.3076 18.8194 44.1157C27.5183 42.8449 33.5077 42.9542 42.218 44.1602C42.8488 44.2517 43.4252 44.5683 43.8408 45.0516C44.2563 45.5349 44.483 46.1522 44.4788 46.7896C44.4788 47.3996 44.2691 47.9918 43.8904 48.4544C43.5003 48.9297 43.1152 49.3884 42.7378 49.8294ZM47.0014 46.3422C46.7981 43.9632 44.9923 41.9782 42.5662 41.6427C33.6501 40.4087 27.4179 40.2905 18.4522 41.6008C16.0122 41.9566 14.2139 43.9594 14.0004 46.3448C9.90242 42.0888 7.6166 36.4082 7.62467 30.5C7.62467 17.8667 17.8663 7.62504 30.4997 7.62504C43.133 7.62504 53.3747 17.8667 53.3747 30.5C53.3828 36.407 51.0979 42.0865 47.0014 46.3422Z" fill="#373837"/>
</svg>
