<svg width="96" height="96" viewBox="0 0 96 96" fill="none" xmlns="http://www.w3.org/2000/svg">
<path d="M91.5945 90.1875H90.1875V67.6725C91.284 67.725 92.352 67.116 92.796 66.0615C92.9288 65.7404 92.9966 65.3962 92.9957 65.0487C92.9947 64.7013 92.9249 64.3574 92.7903 64.0371C92.6557 63.7167 92.459 63.4262 92.2116 63.1823C91.9641 62.9384 91.6708 62.7459 91.3485 62.616L67.6875 52.9515V43.3725L68.2095 43.584C69.5685 44.1345 71.1435 43.497 71.703 42.168C72.267 40.8375 71.6145 39.297 70.2585 38.748L50.3445 30.4635V14.7195H57.3765V10.032H50.3445V3H45.657V10.032H38.625V14.7195H45.657V30.462L25.743 38.7465C24.387 39.2955 23.7345 40.8375 24.2985 42.1665C24.858 43.497 26.433 44.1345 27.789 43.5825L28.314 43.3695V52.95L4.6485 62.616C4.32651 62.7462 4.03349 62.9389 3.78634 63.1829C3.53919 63.427 3.3428 63.7175 3.20851 64.0378C3.07423 64.3582 3.00469 64.7019 3.00391 65.0492C3.00314 65.3965 3.07114 65.7406 3.204 66.0615C3.645 67.116 4.716 67.7265 5.8125 67.6725V90.1875H4.407C3.6315 90.1875 3 90.8205 3 91.5945C3 92.3685 3.6315 93 4.407 93H91.5945C92.3655 93 93 92.367 93 91.5945C93 90.822 92.3655 90.1875 91.5945 90.1875ZM28.3125 90.1875H8.625V66.699L28.3125 58.6575V90.1875ZM46.5945 87.8445H42.375V83.625H46.5945V87.8445ZM46.5945 81.75H42.375V77.5305C42.375 74.9175 44.1735 72.7335 46.5945 72.105V81.75ZM53.625 87.8445H49.4055V83.625H53.625V87.8445ZM53.625 81.75H49.4055V72.1065C51.8235 72.735 53.625 74.919 53.625 77.5305V81.75ZM64.875 90.1875H56.4375V77.5305C56.4375 75.2927 55.5485 73.1466 53.9662 71.5643C52.3839 69.9819 50.2378 69.093 48 69.093C45.7622 69.093 43.6161 69.9819 42.0338 71.5643C40.4514 73.1466 39.5625 75.2927 39.5625 77.5305V90.1875H31.125V42.2295L48 35.385L64.875 42.231V90.1875ZM87.375 90.1875H67.6875V58.656L87.375 66.6975V90.1875Z" fill="#474747"/>
<path d="M46.5665 52.497C47.045 53.1465 47.3419 53.0235 47.2234 52.2255L46.139 44.937C46.1141 44.7511 46.0503 44.5726 45.9518 44.4131C45.8534 44.2535 45.7224 44.1165 45.5674 44.0109C45.4125 43.9054 45.237 43.8336 45.0525 43.8004C44.868 43.7671 44.6785 43.7731 44.4964 43.818C44.4964 43.818 44.303 43.863 43.5095 44.19C42.716 44.52 42.551 44.625 42.551 44.625C42.3903 44.7218 42.2518 44.8515 42.1446 45.0054C42.0374 45.1594 41.964 45.3343 41.929 45.5186C41.894 45.703 41.8984 45.8926 41.9417 46.0751C41.985 46.2577 42.0664 46.429 42.1805 46.578L46.5665 52.497ZM37.9115 53.1705L45.1954 54.2535C45.9904 54.3735 46.115 54.078 45.464 53.5965L39.551 49.212C39.4062 49.0979 39.2379 49.0175 39.0582 48.9764C38.8786 48.9353 38.692 48.9346 38.5121 48.9743C38.3321 49.0141 38.1632 49.0933 38.0176 49.2063C37.872 49.3192 37.7532 49.4631 37.67 49.6275L36.8764 51.546C36.819 51.7211 36.8011 51.9067 36.8241 52.0896C36.847 52.2724 36.9103 52.4479 37.0093 52.6033C37.1084 52.7587 37.2406 52.8902 37.3966 52.9883C37.5527 53.0864 37.7285 53.1486 37.9115 53.1705ZM45.194 55.809L37.907 56.8935C37.7211 56.9183 37.5427 56.9821 37.3832 57.0806C37.2237 57.1791 37.0867 57.3101 36.9813 57.4651C36.8758 57.6201 36.8042 57.7956 36.7712 57.9801C36.7381 58.1646 36.7444 58.354 36.7895 58.536C36.7895 58.536 36.833 58.7295 37.16 59.523C37.49 60.315 37.595 60.4815 37.595 60.4815C37.6918 60.6422 37.8214 60.7806 37.9754 60.8878C38.1294 60.995 38.3043 61.0685 38.4886 61.1034C38.6729 61.1384 38.8626 61.1341 39.0451 61.0907C39.2277 61.0474 39.399 60.9661 39.548 60.852L45.4655 56.466C46.1165 55.986 45.992 55.689 45.194 55.809ZM46.5665 57.564L42.1834 63.48C42.0691 63.6244 41.9883 63.7925 41.947 63.9721C41.9056 64.1516 41.9047 64.3381 41.9444 64.518C41.984 64.6979 42.0632 64.8668 42.1761 65.0123C42.2891 65.1578 42.433 65.2764 42.5975 65.3595L44.5159 66.1545C44.6908 66.212 44.8764 66.2299 45.059 66.2069C45.2417 66.1839 45.417 66.1206 45.5722 66.0215C45.7274 65.9225 45.8586 65.7902 45.9564 65.6341C46.0541 65.4781 46.116 65.3023 46.1375 65.1195L47.222 57.8355C47.342 57.039 47.0465 56.9145 46.5665 57.564ZM49.862 65.1255C49.887 65.3112 49.9509 65.4895 50.0495 65.6489C50.148 65.8083 50.279 65.9451 50.434 66.0505C50.5889 66.156 50.7643 66.2276 50.9487 66.2607C51.1332 66.2939 51.3225 66.2878 51.5044 66.243C51.5044 66.243 51.6979 66.1995 52.4914 65.8725C53.2819 65.5425 53.4499 65.4375 53.4499 65.4375C53.6106 65.3407 53.7491 65.211 53.8563 65.057C53.9635 64.903 54.0369 64.7282 54.0719 64.5438C54.1069 64.3595 54.1025 64.1699 54.0592 63.9873C54.0159 63.8048 53.9345 63.6334 53.8204 63.4845L49.4345 57.564C48.9545 56.9145 48.656 57.039 48.7775 57.837L49.862 65.1255ZM58.0895 56.892L50.8055 55.809C50.0104 55.689 49.8859 55.9845 50.534 56.466L56.4499 60.849C56.5943 60.9633 56.7622 61.0441 56.9417 61.0854C57.1211 61.1268 57.3075 61.1277 57.4873 61.088C57.6671 61.0484 57.8358 60.9692 57.9812 60.8563C58.1266 60.7433 58.2451 60.5994 58.3279 60.435L59.1245 58.5165C59.1819 58.3414 59.1998 58.1557 59.1768 57.9729C59.1539 57.7901 59.0906 57.6146 58.9916 57.4592C58.8925 57.3038 58.7603 57.1723 58.6043 57.0742C58.4482 56.9761 58.2724 56.9139 58.0895 56.892ZM50.804 54.2535L58.0939 53.169C58.2798 53.1439 58.4583 53.08 58.6178 52.9813C58.7773 52.8827 58.9143 52.7515 59.0197 52.5964C59.1251 52.4413 59.1967 52.2658 59.2297 52.0811C59.2628 51.8965 59.2565 51.707 59.2114 51.525C59.2114 51.525 59.1679 51.333 58.841 50.5395C58.511 49.7475 58.4059 49.581 58.4059 49.581C58.3093 49.4201 58.1797 49.2815 58.0257 49.1741C57.8718 49.0668 57.6968 48.9933 57.5124 48.9583C57.328 48.9233 57.1383 48.9277 56.9557 48.9712C56.7732 49.0146 56.6018 49.0962 56.4529 49.2105L50.5325 53.5965C49.8844 54.0765 50.0089 54.3735 50.804 54.2535ZM49.4345 52.497L53.8174 46.5825C53.9318 46.438 54.0126 46.2699 54.0539 46.0904C54.0953 45.9109 54.0962 45.7244 54.0565 45.5445C54.0169 45.3646 53.9377 45.1957 53.8248 45.0502C53.7118 44.9046 53.5679 44.786 53.4035 44.703L51.485 43.908C51.3099 43.8505 51.1242 43.8326 50.9414 43.8556C50.7585 43.8786 50.5831 43.9419 50.4277 44.0409C50.2722 44.1399 50.1408 44.2722 50.0427 44.4282C49.9446 44.5842 49.8823 44.76 49.8605 44.943L48.779 52.2255C48.6575 53.0235 48.9545 53.148 49.4345 52.497ZM18.98 77.3535C19.2785 77.76 19.463 77.6835 19.388 77.1825L18.71 72.6285C18.6944 72.5122 18.6545 72.4006 18.5929 72.3008C18.5313 72.201 18.4494 72.1153 18.3524 72.0494C18.2554 71.9834 18.1457 71.9386 18.0302 71.918C17.9148 71.8973 17.7963 71.9012 17.6825 71.9295C17.6825 71.9295 17.564 71.958 17.0675 72.1605C16.8628 72.2393 16.663 72.3299 16.469 72.432C16.3684 72.4922 16.2817 72.5732 16.2147 72.6694C16.1476 72.7656 16.1018 72.8749 16.0801 72.9901C16.0584 73.1054 16.0614 73.2239 16.0888 73.3379C16.1163 73.4519 16.1677 73.5588 16.2395 73.6515L18.98 77.3535ZM13.5695 77.7735L18.1205 78.4515C18.623 78.528 18.698 78.342 18.293 78.042L14.5925 75.303C14.5022 75.2312 14.397 75.1806 14.2846 75.1547C14.1723 75.1288 14.0555 75.1283 13.9429 75.1533C13.8304 75.1783 13.7248 75.2282 13.634 75.2993C13.5431 75.3703 13.4693 75.4607 13.418 75.564L12.92 76.761C12.8849 76.8704 12.8744 76.9863 12.8893 77.1003C12.9042 77.2142 12.9441 77.3235 13.0062 77.4202C13.0683 77.517 13.1509 77.5988 13.2483 77.6599C13.3457 77.7209 13.4553 77.7597 13.5695 77.7735ZM13.0985 81.741C13.3055 82.239 13.3715 82.3425 13.3715 82.3425C13.4317 82.4431 13.5126 82.5297 13.6088 82.5968C13.705 82.6638 13.8144 82.7097 13.9296 82.7314C14.0449 82.7531 14.1634 82.7501 14.2774 82.7226C14.3914 82.6951 14.4982 82.6438 14.591 82.572L18.2945 79.8315C18.6995 79.533 18.6215 79.347 18.122 79.422L13.5665 80.1C13.4502 80.116 13.3386 80.1562 13.2389 80.218C13.1392 80.2798 13.0536 80.3618 12.9875 80.4588C12.9215 80.5558 12.8766 80.6656 12.8556 80.781C12.8347 80.8964 12.8382 81.015 12.866 81.129C12.866 81.129 12.8945 81.2475 13.0985 81.741ZM18.98 80.52L16.2395 84.2205C16.1674 84.3105 16.1165 84.4156 16.0905 84.5279C16.0644 84.6402 16.0639 84.757 16.089 84.8695C16.114 84.9821 16.164 85.0875 16.2352 85.1782C16.3064 85.2689 16.397 85.3425 16.5005 85.3935L17.6975 85.89C18.1835 86.0325 18.6365 85.74 18.7115 85.2435L19.3895 80.691C19.4645 80.19 19.28 80.1135 18.98 80.52ZM21.0395 85.245C21.1145 85.743 21.575 86.0595 22.067 85.944C22.067 85.944 22.1855 85.9155 22.679 85.713C23.177 85.5075 23.2805 85.4415 23.2805 85.4415C23.381 85.3812 23.4677 85.3003 23.5347 85.2041C23.6018 85.1079 23.6477 84.9986 23.6693 84.8833C23.691 84.7681 23.688 84.6496 23.6606 84.5356C23.6331 84.4216 23.5818 84.3147 23.51 84.222L20.7695 80.52C20.471 80.1135 20.2835 80.1915 20.3585 80.691L21.0395 85.245ZM26.1815 80.1L21.6305 79.422C21.128 79.347 21.053 79.533 21.458 79.8315L25.1585 82.572C25.2485 82.6437 25.3534 82.6944 25.4656 82.7203C25.5777 82.7461 25.6943 82.7466 25.8066 82.7216C25.919 82.6965 26.0243 82.6467 26.1148 82.5756C26.2054 82.5046 26.2789 82.4141 26.33 82.311L26.828 81.114C26.8639 81.0047 26.875 80.8887 26.8607 80.7746C26.8463 80.6604 26.8068 80.5509 26.7449 80.4538C26.683 80.3568 26.6004 80.2747 26.503 80.2135C26.4055 80.1524 26.2957 80.1136 26.1815 80.1ZM21.6305 78.453L26.1815 77.7735C26.2979 77.7584 26.4099 77.7188 26.51 77.6573C26.6101 77.5958 26.696 77.5139 26.7622 77.4169C26.8283 77.3198 26.8732 77.2099 26.8939 77.0942C26.9145 76.9786 26.9104 76.8599 26.882 76.746C26.882 76.746 26.8535 76.626 26.6495 76.1325C26.4455 75.636 26.3795 75.5325 26.3795 75.5325C26.3192 75.4319 26.2383 75.3452 26.1421 75.2782C26.0459 75.2112 25.9365 75.1653 25.8213 75.1436C25.7061 75.1219 25.5875 75.1249 25.4735 75.1524C25.3595 75.1799 25.2527 75.2312 25.16 75.303L21.4565 78.042C21.053 78.342 21.128 78.528 21.6305 78.453ZM20.771 77.3535L23.5115 73.6545C23.5835 73.5644 23.6344 73.4594 23.6604 73.3471C23.6865 73.2347 23.687 73.118 23.6619 73.0055C23.6369 72.8929 23.5869 72.7874 23.5157 72.6967C23.4445 72.6061 23.3539 72.5325 23.2505 72.4815L22.0535 71.9835C21.944 71.9479 21.8281 71.9369 21.7139 71.9515C21.5997 71.9661 21.4902 72.0058 21.3933 72.0678C21.2963 72.1297 21.2143 72.2124 21.1531 72.3099C21.0919 72.4074 21.0531 72.5172 21.0395 72.6315L20.3615 77.1825C20.2835 77.6835 20.471 77.76 20.771 77.3535ZM75.2299 77.3535C75.5285 77.76 75.7129 77.6835 75.6379 77.1825L74.9599 72.6285C74.9444 72.5122 74.9045 72.4006 74.8429 72.3008C74.7813 72.201 74.6994 72.1153 74.6024 72.0494C74.5054 71.9834 74.3956 71.9386 74.2802 71.918C74.1648 71.8973 74.0463 71.9012 73.9324 71.9295C73.9324 71.9295 73.8139 71.958 73.3174 72.1605C73.1128 72.2393 72.913 72.3299 72.7189 72.432C72.6184 72.4922 72.5317 72.5732 72.4647 72.6694C72.3976 72.7656 72.3517 72.8749 72.3301 72.9901C72.3084 73.1054 72.3114 73.2239 72.3388 73.3379C72.3663 73.4519 72.4176 73.5588 72.4894 73.6515L75.2299 77.3535ZM69.8195 77.7735L74.3705 78.4515C74.8729 78.528 74.9479 78.342 74.5429 78.042L70.8425 75.303C70.7522 75.2312 70.647 75.1806 70.5346 75.1547C70.4223 75.1288 70.3055 75.1283 70.1929 75.1533C70.0804 75.1783 69.9748 75.2282 69.884 75.2993C69.7931 75.3703 69.7193 75.4607 69.6679 75.564L69.1699 76.761C69.1349 76.8704 69.1244 76.9863 69.1393 77.1003C69.1542 77.2142 69.1941 77.3235 69.2562 77.4202C69.3183 77.517 69.4009 77.5988 69.4983 77.6599C69.5957 77.7209 69.7053 77.7597 69.8195 77.7735ZM69.3484 81.741C69.5554 82.239 69.6215 82.3425 69.6215 82.3425C69.6817 82.4431 69.7626 82.5297 69.8588 82.5968C69.955 82.6638 70.0644 82.7097 70.1796 82.7314C70.2948 82.7531 70.4134 82.7501 70.5274 82.7226C70.6414 82.6951 70.7482 82.6438 70.841 82.572L74.5444 79.8315C74.9494 79.533 74.8715 79.347 74.3719 79.422L69.8164 80.1C69.7002 80.116 69.5886 80.1562 69.4889 80.218C69.3892 80.2798 69.3036 80.3618 69.2375 80.4588C69.1715 80.5558 69.1266 80.6656 69.1056 80.781C69.0847 80.8964 69.0882 81.015 69.116 81.129C69.116 81.129 69.1444 81.2475 69.3484 81.741ZM75.2299 80.52L72.4894 84.2205C72.4174 84.3105 72.3665 84.4156 72.3405 84.5279C72.3144 84.6402 72.3139 84.757 72.339 84.8695C72.364 84.9821 72.414 85.0875 72.4852 85.1782C72.5564 85.2689 72.647 85.3425 72.7505 85.3935L73.9474 85.89C74.4334 86.0325 74.8864 85.74 74.9614 85.2435L75.6394 80.691C75.7144 80.19 75.5299 80.1135 75.2299 80.52ZM77.2895 85.245C77.3644 85.743 77.8249 86.0595 78.3169 85.944C78.3169 85.944 78.4354 85.9155 78.9289 85.713C79.4269 85.5075 79.5304 85.4415 79.5304 85.4415C79.631 85.3812 79.7177 85.3003 79.7847 85.2041C79.8518 85.1079 79.8977 84.9986 79.9193 84.8833C79.941 84.7681 79.938 84.6496 79.9106 84.5356C79.8831 84.4216 79.8317 84.3147 79.7599 84.222L77.0194 80.52C76.7209 80.1135 76.5334 80.1915 76.6084 80.691L77.2895 85.245ZM82.4314 80.1L77.8804 79.422C77.3779 79.347 77.3029 79.533 77.7079 79.8315L81.4084 82.572C81.4985 82.6437 81.6034 82.6944 81.7156 82.7203C81.8277 82.7461 81.9442 82.7466 82.0566 82.7216C82.1689 82.6965 82.2743 82.6467 82.3648 82.5756C82.4554 82.5046 82.5289 82.4141 82.5799 82.311L83.0779 81.114C83.1138 81.0047 83.125 80.8887 83.1107 80.7746C83.0963 80.6604 83.0568 80.5509 82.9949 80.4538C82.933 80.3568 82.8504 80.2747 82.753 80.2135C82.6555 80.1524 82.5457 80.1136 82.4314 80.1ZM77.8804 78.453L82.4314 77.7735C82.5479 77.7584 82.6599 77.7188 82.76 77.6573C82.8601 77.5958 82.946 77.5139 83.0122 77.4169C83.0783 77.3198 83.1232 77.2099 83.1438 77.0942C83.1645 76.9786 83.1604 76.8599 83.132 76.746C83.132 76.746 83.1034 76.626 82.8994 76.1325C82.6954 75.636 82.6294 75.5325 82.6294 75.5325C82.5692 75.4319 82.4883 75.3452 82.3921 75.2782C82.2959 75.2112 82.1865 75.1653 82.0713 75.1436C81.956 75.1219 81.8375 75.1249 81.7235 75.1524C81.6095 75.1799 81.5027 75.2312 81.4099 75.303L77.7065 78.042C77.3029 78.342 77.3779 78.528 77.8804 78.453ZM77.021 77.3535L79.7614 73.6545C79.8335 73.5644 79.8844 73.4594 79.9104 73.3471C79.9365 73.2347 79.937 73.118 79.9119 73.0055C79.8869 72.8929 79.8369 72.7874 79.7657 72.6967C79.6945 72.6061 79.6039 72.5325 79.5005 72.4815L78.3034 71.9835C78.194 71.9479 78.078 71.9369 77.9639 71.9515C77.8497 71.9661 77.7402 72.0058 77.6432 72.0678C77.5463 72.1297 77.4642 72.2124 77.4031 72.3099C77.3419 72.4074 77.3031 72.5172 77.2895 72.6315L76.6115 77.1825C76.5334 77.6835 76.7209 77.76 77.021 77.3535ZM80.975 43.782C80.975 43.782 93.0005 31.125 93.0005 24.798C93.0005 21.3045 90.0184 18.4695 86.3374 18.4695C83.6869 18.4695 81.4159 19.9515 80.3449 22.0845C79.2739 19.9515 77.0014 18.4695 74.3494 18.4695C70.6714 18.4695 67.6894 21.3045 67.6894 24.798C67.688 31.125 80.975 43.782 80.975 43.782ZM16.2875 43.782C16.2875 43.782 28.313 31.125 28.313 24.798C28.313 21.3045 25.331 18.4695 21.65 18.4695C18.9995 18.4695 16.7285 19.9515 15.6575 22.0845C14.5865 19.9515 12.314 18.4695 9.66195 18.4695C5.98395 18.4695 3.00195 21.3045 3.00195 24.798C3.00045 31.125 16.2875 43.782 16.2875 43.782Z" fill="#474747"/>
</svg>
